<svg id="Capa_1" enable-background="new 0 0 512 512" height="512" viewBox="0 0 512 512" width="512" xmlns="http://www.w3.org/2000/svg"><g><g><path d="m510.824 197.42-91.12-142.941c-8.841-13.869-23.945-22.149-40.404-22.149h-32.477l-19.992-29.079c-1.44-2.094-3.779-3.248-6.18-3.249v-.002h-.063c-.013 0-.025 0-.038 0h-129.099c-.013 0-.025 0-.038 0h-.063v.002c-2.401.001-4.741 1.154-6.18 3.249l-19.992 29.079h-32.478c-16.459 0-31.563 8.28-40.404 22.148l-91.12 142.942c-1.159 1.818-1.479 4.046-.88 6.117.6 2.071 2.061 3.783 4.011 4.701l98.733 46.462v157.51c0 4.142 3.358 7.5 7.5 7.5s7.5-3.358 7.5-7.5l-.003-226.633c0-4.142-3.358-7.5-7.5-7.5s-7.5 3.358-7.5 7.5v20.504l-68.92-32.428 68.92-108.119v14.373c0 4.142 3.358 7.5 7.5 7.5s7.5-3.358 7.5-7.5v-29.141c4.475-2.222 9.468-3.435 14.664-3.435h32.866l42.193 51.781c1.425 1.75 3.561 2.763 5.814 2.763h.085c2.285-.026 4.433-1.092 5.835-2.895l29.006-37.296v79.157c0 4.142 3.358 7.5 7.5 7.5s7.5-3.358 7.5-7.5v-79.157l29.007 37.295c1.402 1.803 3.55 2.869 5.835 2.895h.085c2.253 0 4.389-1.013 5.814-2.763l42.193-51.781h32.866c5.196 0 10.188 1.214 14.664 3.435v29.141c0 4.142 3.358 7.5 7.5 7.5s7.5-3.358 7.5-7.5v-14.372l68.92 108.119-68.92 32.428v-20.504c0-4.142-3.358-7.5-7.5-7.5s-7.5 3.358-7.5 7.5l-.003 104.497c0 4.142 3.358 7.5 7.5 7.5s7.5-3.358 7.5-7.5v-35.374l98.733-46.463c1.951-.918 3.412-2.63 4.011-4.701.599-2.07.278-4.299-.881-6.116zm-407.784 25.24v15.463l-84.633-39.827 7.58-11.89zm152.96-191.22-32.88-16.44h65.761zm-42.563 50.894-34.947-42.89 15.343-22.317 50.631 25.315zm85.127 0-31.027-39.892 50.631-25.315 15.343 22.317zm110.396 155.788v-15.462l77.053-36.255 7.58 11.89z"/><path d="m401.46 317.643c-4.142 0-7.5 3.358-7.5 7.5v171.857h-275.92v-49.714c0-4.142-3.358-7.5-7.5-7.5s-7.5 3.358-7.5 7.5v57.214c0 4.142 3.358 7.5 7.5 7.5h290.92c4.142 0 7.5-3.358 7.5-7.5v-179.357c0-4.142-3.358-7.5-7.5-7.5z"/><path d="m368.128 193.077c4.142 0 7.5-3.358 7.5-7.5s-3.358-7.5-7.5-7.5h-60.61c-4.142 0-7.5 3.358-7.5 7.5s3.358 7.5 7.5 7.5z"/></g></g></svg>